<svg width="28" height="28" viewBox="0 0 28 28" fill="none" xmlns="http://www.w3.org/2000/svg">
<g id="Logomark" clip-path="url(#clip0_13474_15497)">
<g id="Subtract">
<path d="M13.9574 19.9859C15.2927 19.9859 16.3753 18.9034 16.3753 17.568C16.3753 16.2327 15.2927 15.1502 13.9574 15.1502C12.6221 15.1502 11.5395 16.2327 11.5395 17.568C11.5395 18.9034 12.6221 19.9859 13.9574 19.9859Z" fill="black" fill-opacity="0.875"/>
<path fill-rule="evenodd" clip-rule="evenodd" d="M13.9573 27.9147C23.5928 27.9147 27.9147 23.5928 27.9147 13.9573C27.9147 4.3218 23.5928 0 13.9573 0C4.3218 0 0 4.3218 0 13.9573C0 23.5928 4.3218 27.9147 13.9573 27.9147ZM11.3355 5.9184H15.2184V12.317H12.811V7.97821H10.6543L11.3355 5.9184ZM13.9574 21.9963C16.403 21.9963 18.3856 20.0137 18.3856 17.568C18.3856 15.1224 16.403 13.1398 13.9574 13.1398C11.5118 13.1398 9.52919 15.1224 9.52919 17.568C9.52919 20.0137 11.5118 21.9963 13.9574 21.9963Z" fill="black" fill-opacity="0.875"/>
</g>
</g>
<defs>
<clipPath id="clip0_13474_15497">
<rect width="28" height="28" fill="white"/>
</clipPath>
</defs>
</svg>
