<svg width="12" height="17" viewBox="0 0 12 17" fill="none" xmlns="http://www.w3.org/2000/svg">
<path d="M6.58823 4.3303H4.77695L4.45919 5.29116H5.46522V7.31511H6.58823V4.3303Z" fill="currentColor" />
<path fill-rule="evenodd" clip-rule="evenodd" d="M8.06568 9.76463C8.06568 10.9055 7.14084 11.8303 6 11.8303C4.85916 11.8303 3.93433 10.9055 3.93433 9.76463C3.93433 8.62378 4.85916 7.69895 6 7.69895C7.14084 7.69895 8.06568 8.62378 8.06568 9.76463ZM6 10.8925C6.62291 10.8925 7.12788 10.3875 7.12788 9.76462C7.12788 9.14171 6.62291 8.63674 6 8.63674C5.37708 8.63674 4.87211 9.14171 4.87211 9.76462C4.87211 10.3875 5.37708 10.8925 6 10.8925Z" fill="currentColor" />
<path fill-rule="evenodd" clip-rule="evenodd" d="M2.66663 0.163635C1.28591 0.163635 0.166626 1.28292 0.166626 2.66364V14.3303C0.166626 15.711 1.28591 16.8303 2.66663 16.8303H9.33329C10.714 16.8303 11.8333 15.711 11.8333 14.3303V2.66364C11.8333 1.28292 10.714 0.163635 9.33329 0.163635H2.66663ZM1.83329 2.66364C1.83329 2.2034 2.20639 1.8303 2.66663 1.8303H9.33329C9.79353 1.8303 10.1666 2.2034 10.1666 2.66364V13.497C10.1666 13.9572 9.79353 14.3303 9.33329 14.3303H2.66663C2.20639 14.3303 1.83329 13.9572 1.83329 13.497V2.66364Z" fill="currentColor" />
</svg>
